<?xml version="1.0" encoding="UTF-8" standalone="no"?>
<!DOCTYPE svg PUBLIC "-//W3C//DTD SVG 1.1//EN"
 "http://www.w3.org/Graphics/SVG/1.1/DTD/svg11.dtd">
<!-- Generated by graphviz version 13.1.0 (20250701.0955)
 -->
<!-- Title: 企业网络拓扑 (半复杂版&#45;本地图标) Pages: 1 -->
<svg width="1255pt" height="1837pt"
 viewBox="0.00 0.00 1255.00 1837.00" xmlns="http://www.w3.org/2000/svg" xmlns:xlink="http://www.w3.org/1999/xlink">
<g id="graph0" class="graph" transform="scale(1 1) rotate(0) translate(144 1692.95)">
<title>企业网络拓扑 (半复杂版&#45;本地图标)</title>
<text xml:space="preserve" text-anchor="middle" x="483.5" y="-8.35" font-family="Sans-Serif" font-size="12.00" fill="#2d3436">企业网络拓扑 (半复杂版&#45;本地图标)</text>
<g id="clust1" class="cluster">
<title>cluster_边界区 (192.168.1.0/24)</title>
<path fill="#e5f5fd" stroke="#aeb6be" d="M537,-1022.55C537,-1022.55 661,-1022.55 661,-1022.55 667,-1022.55 673,-1028.55 673,-1034.55 673,-1034.55 673,-1377.9 673,-1377.9 673,-1383.9 667,-1389.9 661,-1389.9 661,-1389.9 537,-1389.9 537,-1389.9 531,-1389.9 525,-1383.9 525,-1377.9 525,-1377.9 525,-1034.55 525,-1034.55 525,-1028.55 531,-1022.55 537,-1022.55"/>
<text xml:space="preserve" text-anchor="middle" x="599" y="-1374.5" font-family="Sans-Serif" font-size="12.00" fill="#2d3436">边界区 (192.168.1.0/24)</text>
</g>
<g id="clust2" class="cluster">
<title>cluster_内部网络 (10.0.0.0/8)</title>
<path fill="#e5f5fd" stroke="#aeb6be" d="M20,-31.75C20,-31.75 786,-31.75 786,-31.75 792,-31.75 798,-37.75 798,-43.75 798,-43.75 798,-805.5 798,-805.5 798,-811.5 792,-817.5 786,-817.5 786,-817.5 20,-817.5 20,-817.5 14,-817.5 8,-811.5 8,-805.5 8,-805.5 8,-43.75 8,-43.75 8,-37.75 14,-31.75 20,-31.75"/>
<text xml:space="preserve" text-anchor="middle" x="74.5" y="-802.1" font-family="Sans-Serif" font-size="12.00" fill="#2d3436">内部网络 (10.0.0.0/8)</text>
</g>
<g id="clust3" class="cluster">
<title>cluster_内部网络 基础服务 (10.0.0.0/22)</title>
<path fill="#ebf3e7" stroke="#aeb6be" d="M28,-421.35C28,-421.35 381,-421.35 381,-421.35 387,-421.35 393,-427.35 393,-433.35 393,-433.35 393,-614.7 393,-614.7 393,-620.7 387,-626.7 381,-626.7 381,-626.7 28,-626.7 28,-626.7 22,-626.7 16,-620.7 16,-614.7 16,-614.7 16,-433.35 16,-433.35 16,-427.35 22,-421.35 28,-421.35"/>
<text xml:space="preserve" text-anchor="middle" x="112.88" y="-611.3" font-family="Sans-Serif" font-size="12.00" fill="#2d3436">内部网络 基础服务 (10.0.0.0/22)</text>
</g>
<g id="clust4" class="cluster">
<title>cluster_内部网络 内部服务 (10.8.1.0/24)</title>
<path fill="#ebf3e7" stroke="#aeb6be" d="M413,-39.75C413,-39.75 582,-39.75 582,-39.75 588,-39.75 594,-45.75 594,-51.75 594,-51.75 594,-600.3 594,-600.3 594,-606.3 588,-612.3 582,-612.3 582,-612.3 413,-612.3 413,-612.3 407,-612.3 401,-606.3 401,-600.3 401,-600.3 401,-51.75 401,-51.75 401,-45.75 407,-39.75 413,-39.75"/>
<text xml:space="preserve" text-anchor="middle" x="497.88" y="-596.9" font-family="Sans-Serif" font-size="12.00" fill="#2d3436">内部网络 内部服务 (10.8.1.0/24)</text>
</g>
<g id="clust5" class="cluster">
<title>cluster_内部网络 办公区 (10.16.1.0/24)</title>
<path fill="#ebf3e7" stroke="#aeb6be" d="M614,-230.55C614,-230.55 778,-230.55 778,-230.55 784,-230.55 790,-236.55 790,-242.55 790,-242.55 790,-600.3 790,-600.3 790,-606.3 784,-612.3 778,-612.3 778,-612.3 614,-612.3 614,-612.3 608,-612.3 602,-606.3 602,-600.3 602,-600.3 602,-242.55 602,-242.55 602,-236.55 608,-230.55 614,-230.55"/>
<text xml:space="preserve" text-anchor="middle" x="696.25" y="-596.9" font-family="Sans-Serif" font-size="12.00" fill="#2d3436">内部网络 办公区 (10.16.1.0/24)</text>
</g>
<g id="clust6" class="cluster">
<title>cluster_访客网络 (172.16.0.0/14)</title>
<path fill="#e5f5fd" stroke="#aeb6be" d="M818,-39.75C818,-39.75 947,-39.75 947,-39.75 953,-39.75 959,-45.75 959,-51.75 959,-51.75 959,-805.5 959,-805.5 959,-811.5 953,-817.5 947,-817.5 947,-817.5 818,-817.5 818,-817.5 812,-817.5 806,-811.5 806,-805.5 806,-805.5 806,-51.75 806,-51.75 806,-45.75 812,-39.75 818,-39.75"/>
<text xml:space="preserve" text-anchor="middle" x="882.62" y="-802.1" font-family="Sans-Serif" font-size="12.00" fill="#2d3436">访客网络 (172.16.0.0/14)</text>
</g>
<!-- 750918b3af824516aab44c8b41c39d97 -->
<g id="node1" class="node">
<title>750918b3af824516aab44c8b41c39d97</title>
<image xlink:href="D:\testProject\my_icons\internet.svg" width="57.6px" height="38.1457px" preserveAspectRatio="xMinYMin meet" x="570.2" y="-1499.62"/>
<text xml:space="preserve" text-anchor="middle" x="599" y="-1417.9" font-family="Sans-Serif" font-size="20.00" fill="#2d3436">公网 / Internet</text>
</g>
<!-- 3c624a275c2844e09347c775d75d2553 -->
<g id="node2" class="node">
<title>3c624a275c2844e09347c775d75d2553</title>
<image xlink:href="D:\testProject\my_icons\firewall.svg" width="57.6px" height="57.6px" preserveAspectRatio="xMinYMin meet" x="570.2" y="-1318.55"/>
<text xml:space="preserve" text-anchor="middle" x="599" y="-1222.6" font-family="Sans-Serif" font-size="20.00" fill="#2d3436">主防火墙</text>
</g>
<!-- 750918b3af824516aab44c8b41c39d97&#45;&gt;3c624a275c2844e09347c775d75d2553 -->
<g id="edge1" class="edge">
<title>750918b3af824516aab44c8b41c39d97&#45;&gt;3c624a275c2844e09347c775d75d2553</title>
<path fill="none" stroke="#7b8894" d="M599,-1412.21C599,-1412.21 599,-1369.45 599,-1369.45"/>
<polygon fill="#7b8894" stroke="#7b8894" points="602.5,-1369.45 599,-1359.45 595.5,-1369.45 602.5,-1369.45"/>
</g>
<!-- 2c0a915ae25748b48e1a58f0a11fdb10 -->
<g id="node3" class="node">
<title>2c0a915ae25748b48e1a58f0a11fdb10</title>
<image xlink:href="D:\testProject\my_icons\switch.svg" width="57.6px" height="43.4717px" preserveAspectRatio="xMinYMin meet" x="570.2" y="-1120.69"/>
<text xml:space="preserve" text-anchor="middle" x="599" y="-1036.3" font-family="Sans-Serif" font-size="20.00" fill="#2d3436">NAT网关</text>
</g>
<!-- 3c624a275c2844e09347c775d75d2553&#45;&gt;2c0a915ae25748b48e1a58f0a11fdb10 -->
<g id="edge2" class="edge">
<title>3c624a275c2844e09347c775d75d2553&#45;&gt;2c0a915ae25748b48e1a58f0a11fdb10</title>
<path fill="none" stroke="#7b8894" d="M599,-1221.41C599,-1221.41 599,-1178.65 599,-1178.65"/>
<polygon fill="#7b8894" stroke="#7b8894" points="602.5,-1178.65 599,-1168.65 595.5,-1178.65 602.5,-1178.65"/>
</g>
<!-- 86bf7633567d455abc99c12666e92959 -->
<g id="node4" class="node">
<title>86bf7633567d455abc99c12666e92959</title>
<image xlink:href="D:\testProject\my_icons\router.svg" width="57.6px" height="46.08px" preserveAspectRatio="xMinYMin meet" x="570.2" y="-931.19"/>
<text xml:space="preserve" text-anchor="middle" x="599" y="-841" font-family="Sans-Serif" font-size="20.00" fill="#2d3436">核心路由器</text>
</g>
<!-- 2c0a915ae25748b48e1a58f0a11fdb10&#45;&gt;86bf7633567d455abc99c12666e92959 -->
<g id="edge3" class="edge">
<title>2c0a915ae25748b48e1a58f0a11fdb10&#45;&gt;86bf7633567d455abc99c12666e92959</title>
<path fill="none" stroke="#7b8894" d="M599,-1030.61C599,-1030.61 599,-987.85 599,-987.85"/>
<polygon fill="#7b8894" stroke="#7b8894" points="602.5,-987.85 599,-977.85 595.5,-987.85 602.5,-987.85"/>
</g>
<!-- 25fbf0e00862438fb100080802bf2c37 -->
<g id="node5" class="node">
<title>25fbf0e00862438fb100080802bf2c37</title>
<image xlink:href="D:\testProject\my_icons\switch.svg" width="57.6px" height="43.4717px" preserveAspectRatio="xMinYMin meet" x="327.2" y="-739.086"/>
<text xml:space="preserve" text-anchor="middle" x="356" y="-654.7" font-family="Sans-Serif" font-size="20.00" fill="#2d3436">核心交换机 (三层)</text>
</g>
<!-- 86bf7633567d455abc99c12666e92959&#45;&gt;25fbf0e00862438fb100080802bf2c37 -->
<g id="edge4" class="edge">
<title>86bf7633567d455abc99c12666e92959&#45;&gt;25fbf0e00862438fb100080802bf2c37</title>
<path fill="none" stroke="#7b8894" d="M590.2,-839.82C590.2,-789.84 590.2,-730.75 590.2,-730.75 590.2,-730.75 396.23,-730.75 396.23,-730.75"/>
<polygon fill="#7b8894" stroke="#7b8894" points="396.23,-727.25 386.23,-730.75 396.23,-734.25 396.23,-727.25"/>
</g>
<!-- 76505235bf5c43e7b4905c030d3435fb -->
<g id="node16" class="node">
<title>76505235bf5c43e7b4905c030d3435fb</title>
<image xlink:href="D:\testProject\my_icons\firewall.svg" width="57.6px" height="57.6px" preserveAspectRatio="xMinYMin meet" x="814.2" y="-746.15"/>
<text xml:space="preserve" text-anchor="middle" x="843" y="-650.2" font-family="Sans-Serif" font-size="20.00" fill="#2d3436">访客区防火墙</text>
</g>
<!-- 86bf7633567d455abc99c12666e92959&#45;&gt;76505235bf5c43e7b4905c030d3435fb -->
<g id="edge15" class="edge">
<title>86bf7633567d455abc99c12666e92959&#45;&gt;76505235bf5c43e7b4905c030d3435fb</title>
<path fill="none" stroke="#7b8894" d="M621.93,-840.01C621.93,-800.61 621.93,-758.75 621.93,-758.75 621.93,-758.75 803.04,-758.75 803.04,-758.75"/>
<polygon fill="#7b8894" stroke="#7b8894" points="803.04,-762.25 813.04,-758.75 803.04,-755.25 803.04,-762.25"/>
</g>
<!-- 1f2a381e6ca846feb36f11cc3df2ab4a -->
<g id="node6" class="node">
<title>1f2a381e6ca846feb36f11cc3df2ab4a</title>
<image xlink:href="D:\testProject\my_icons\activedirectory.svg" width="57.6px" height="57.6px" preserveAspectRatio="xMinYMin meet" x="24.2" y="-540.95"/>
<text xml:space="preserve" text-anchor="middle" x="53" y="-449.5" font-family="Sans-Serif" font-size="20.00" fill="#2d3436">AD DC</text>
</g>
<!-- 25fbf0e00862438fb100080802bf2c37&#45;&gt;1f2a381e6ca846feb36f11cc3df2ab4a -->
<g id="edge5" class="edge">
<title>25fbf0e00862438fb100080802bf2c37&#45;&gt;1f2a381e6ca846feb36f11cc3df2ab4a</title>
<path fill="none" stroke="darkgreen" d="M327.22,-751.75C251.59,-751.75 53,-751.75 53,-751.75 53,-751.75 53,-592 53,-592"/>
<polygon fill="darkgreen" stroke="darkgreen" points="56.5,-592 53,-582 49.5,-592 56.5,-592"/>
</g>
<!-- e2f2f01a60424dd68e3c4f09d38ddff3 -->
<g id="node7" class="node">
<title>e2f2f01a60424dd68e3c4f09d38ddff3</title>
<image xlink:href="D:\testProject\my_icons\coredns.svg" width="57.6px" height="57.6px" preserveAspectRatio="xMinYMin meet" x="125.2" y="-540.95"/>
<text xml:space="preserve" text-anchor="middle" x="154" y="-449.5" font-family="Sans-Serif" font-size="20.00" fill="#2d3436">DNS Server</text>
</g>
<!-- 25fbf0e00862438fb100080802bf2c37&#45;&gt;e2f2f01a60424dd68e3c4f09d38ddff3 -->
<g id="edge6" class="edge">
<title>25fbf0e00862438fb100080802bf2c37&#45;&gt;e2f2f01a60424dd68e3c4f09d38ddff3</title>
<path fill="none" stroke="darkgreen" d="M327.49,-717.75C271.81,-717.75 154,-717.75 154,-717.75 154,-717.75 154,-591.84 154,-591.84"/>
<polygon fill="darkgreen" stroke="darkgreen" points="157.5,-591.84 154,-581.84 150.5,-591.84 157.5,-591.84"/>
</g>
<!-- 95eaa223baf7480bb360be3f15bed123 -->
<g id="node8" class="node">
<title>95eaa223baf7480bb360be3f15bed123</title>
<image xlink:href="D:\testProject\my_icons\smtp_server.svg" width="57.6px" height="57.6px" preserveAspectRatio="xMinYMin meet" x="226.2" y="-540.95"/>
<text xml:space="preserve" text-anchor="middle" x="255" y="-449.5" font-family="Sans-Serif" font-size="20.00" fill="#2d3436">SMTP Server</text>
</g>
<!-- 25fbf0e00862438fb100080802bf2c37&#45;&gt;95eaa223baf7480bb360be3f15bed123 -->
<g id="edge7" class="edge">
<title>25fbf0e00862438fb100080802bf2c37&#45;&gt;95eaa223baf7480bb360be3f15bed123</title>
<path fill="none" stroke="darkgreen" d="M327.33,-682.75C297.47,-682.75 255,-682.75 255,-682.75 255,-682.75 255,-591.58 255,-591.58"/>
<polygon fill="darkgreen" stroke="darkgreen" points="258.5,-591.58 255,-581.58 251.5,-591.58 258.5,-591.58"/>
</g>
<!-- d524e594df004f4f8f2c497cf4646689 -->
<g id="node9" class="node">
<title>d524e594df004f4f8f2c497cf4646689</title>
<image xlink:href="D:\testProject\my_icons\server.svg" width="57.6px" height="57.6px" preserveAspectRatio="xMinYMin meet" x="327.2" y="-540.95"/>
<text xml:space="preserve" text-anchor="middle" x="356" y="-459.85" font-family="Sans-Serif" font-size="20.00" fill="#2d3436">Jump Server</text>
<text xml:space="preserve" text-anchor="middle" x="356" y="-435.1" font-family="Sans-Serif" font-size="20.00" fill="#2d3436">(堡垒机)</text>
</g>
<!-- 25fbf0e00862438fb100080802bf2c37&#45;&gt;d524e594df004f4f8f2c497cf4646689 -->
<g id="edge8" class="edge">
<title>25fbf0e00862438fb100080802bf2c37&#45;&gt;d524e594df004f4f8f2c497cf4646689</title>
<path fill="none" stroke="darkgreen" d="M356,-649.02C356,-649.02 356,-606.31 356,-606.31"/>
<polygon fill="darkgreen" stroke="darkgreen" points="359.5,-606.31 356,-596.31 352.5,-606.31 359.5,-606.31"/>
</g>
<!-- b159025d0fc345b2b9ffd17adb26d163 -->
<g id="node10" class="node">
<title>b159025d0fc345b2b9ffd17adb26d163</title>
<image xlink:href="D:\testProject\my_icons\waf.svg" width="57.6px" height="57.6px" preserveAspectRatio="xMinYMin meet" x="428.2" y="-540.95"/>
<text xml:space="preserve" text-anchor="middle" x="457" y="-449.5" font-family="Sans-Serif" font-size="20.00" fill="#2d3436">WAF / 反代</text>
</g>
<!-- 25fbf0e00862438fb100080802bf2c37&#45;&gt;b159025d0fc345b2b9ffd17adb26d163 -->
<g id="edge9" class="edge">
<title>25fbf0e00862438fb100080802bf2c37&#45;&gt;b159025d0fc345b2b9ffd17adb26d163</title>
<path fill="none" stroke="blue" d="M384.67,-676.75C414.53,-676.75 457,-676.75 457,-676.75 457,-676.75 457,-592.04 457,-592.04"/>
<polygon fill="blue" stroke="blue" points="460.5,-592.04 457,-582.04 453.5,-592.04 460.5,-592.04"/>
</g>
<!-- b8c2c1f10ed440748af7d984c0d55845 -->
<g id="node13" class="node">
<title>b8c2c1f10ed440748af7d984c0d55845</title>
<image xlink:href="D:\testProject\my_icons\switch.svg" width="57.6px" height="43.4717px" preserveAspectRatio="xMinYMin meet" x="610.2" y="-533.886"/>
<text xml:space="preserve" text-anchor="middle" x="639" y="-445" font-family="Sans-Serif" font-size="20.00" fill="#2d3436">办公区接入交换机</text>
</g>
<!-- 25fbf0e00862438fb100080802bf2c37&#45;&gt;b8c2c1f10ed440748af7d984c0d55845 -->
<g id="edge12" class="edge">
<title>25fbf0e00862438fb100080802bf2c37&#45;&gt;b8c2c1f10ed440748af7d984c0d55845</title>
<path fill="none" stroke="purple" d="M384.33,-703.75C451.73,-703.75 616.07,-703.75 616.07,-703.75 616.07,-703.75 616.07,-592.02 616.07,-592.02"/>
<polygon fill="purple" stroke="purple" points="619.57,-592.02 616.07,-582.02 612.57,-592.02 619.57,-592.02"/>
</g>
<!-- 869d82537dca4a808e8d636aa72c57df -->
<g id="node11" class="node">
<title>869d82537dca4a808e8d636aa72c57df</title>
<image xlink:href="D:\testProject\my_icons\server.svg" width="57.6px" height="57.6px" preserveAspectRatio="xMinYMin meet" x="428.2" y="-335.75"/>
<text xml:space="preserve" text-anchor="middle" x="457" y="-239.8" font-family="Sans-Serif" font-size="20.00" fill="#2d3436">应用服务器</text>
</g>
<!-- b159025d0fc345b2b9ffd17adb26d163&#45;&gt;869d82537dca4a808e8d636aa72c57df -->
<g id="edge10" class="edge">
<title>b159025d0fc345b2b9ffd17adb26d163&#45;&gt;869d82537dca4a808e8d636aa72c57df</title>
<path fill="none" stroke="#7b8894" d="M457,-443.82C457,-443.82 457,-386.84 457,-386.84"/>
<polygon fill="#7b8894" stroke="#7b8894" points="460.5,-386.84 457,-376.84 453.5,-386.84 460.5,-386.84"/>
</g>
<!-- 6f45d2d0dd04413a99b0183cde32f6ef -->
<g id="node12" class="node">
<title>6f45d2d0dd04413a99b0183cde32f6ef</title>
<image xlink:href="D:\testProject\my_icons\server.svg" width="57.6px" height="57.6px" preserveAspectRatio="xMinYMin meet" x="428.2" y="-144.95"/>
<text xml:space="preserve" text-anchor="middle" x="457" y="-49" font-family="Sans-Serif" font-size="20.00" fill="#2d3436">数据库服务器</text>
</g>
<!-- 869d82537dca4a808e8d636aa72c57df&#45;&gt;6f45d2d0dd04413a99b0183cde32f6ef -->
<g id="edge11" class="edge">
<title>869d82537dca4a808e8d636aa72c57df&#45;&gt;6f45d2d0dd04413a99b0183cde32f6ef</title>
<path fill="none" stroke="#7b8894" d="M457,-238.61C457,-238.61 457,-195.85 457,-195.85"/>
<polygon fill="#7b8894" stroke="#7b8894" points="460.5,-195.85 457,-185.85 453.5,-195.85 460.5,-195.85"/>
</g>
<!-- e1cecf5deb0d44a281af745e7eb1d01c -->
<g id="node14" class="node">
<title>e1cecf5deb0d44a281af745e7eb1d01c</title>
<image xlink:href="D:\testProject\my_icons\client.svg" width="57.6px" height="57.6px" preserveAspectRatio="xMinYMin meet" x="660.2" y="-335.75"/>
<text xml:space="preserve" text-anchor="middle" x="689" y="-239.8" font-family="Sans-Serif" font-size="20.00" fill="#2d3436">办公电脑</text>
</g>
<!-- b8c2c1f10ed440748af7d984c0d55845&#45;&gt;e1cecf5deb0d44a281af745e7eb1d01c -->
<g id="edge13" class="edge">
<title>b8c2c1f10ed440748af7d984c0d55845&#45;&gt;e1cecf5deb0d44a281af745e7eb1d01c</title>
<path fill="none" stroke="#7b8894" d="M664,-443.82C664,-443.82 664,-386.84 664,-386.84"/>
<polygon fill="#7b8894" stroke="#7b8894" points="667.5,-386.84 664,-376.84 660.5,-386.84 667.5,-386.84"/>
</g>
<!-- 0c5827a63a94414f8cc9403da5769b71 -->
<g id="node15" class="node">
<title>0c5827a63a94414f8cc9403da5769b71</title>
<image xlink:href="D:\testProject\my_icons\user.svg" width="57.6px" height="57.6px" preserveAspectRatio="xMinYMin meet" x="711.2" y="-540.95"/>
<text xml:space="preserve" text-anchor="middle" x="740" y="-445" font-family="Sans-Serif" font-size="20.00" fill="#2d3436">员工</text>
</g>
<!-- 0c5827a63a94414f8cc9403da5769b71&#45;&gt;e1cecf5deb0d44a281af745e7eb1d01c -->
<g id="edge14" class="edge">
<title>0c5827a63a94414f8cc9403da5769b71&#45;&gt;e1cecf5deb0d44a281af745e7eb1d01c</title>
<path fill="none" stroke="#7b8894" d="M711.21,-511.75C699.87,-511.75 689.5,-511.75 689.5,-511.75 689.5,-511.75 689.5,-434.72 689.5,-375.15"/>
</g>
<!-- fcc40aa3b8624096b3f4fa7aed9dd979 -->
<g id="node17" class="node">
<title>fcc40aa3b8624096b3f4fa7aed9dd979</title>
<image xlink:href="D:\testProject\my_icons\portal.svg" width="57.6px" height="57.6px" preserveAspectRatio="xMinYMin meet" x="814.2" y="-540.95"/>
<text xml:space="preserve" text-anchor="middle" x="843" y="-449.5" font-family="Sans-Serif" font-size="20.00" fill="#2d3436">Portal认证</text>
</g>
<!-- 76505235bf5c43e7b4905c030d3435fb&#45;&gt;fcc40aa3b8624096b3f4fa7aed9dd979 -->
<g id="edge16" class="edge">
<title>76505235bf5c43e7b4905c030d3435fb&#45;&gt;fcc40aa3b8624096b3f4fa7aed9dd979</title>
<path fill="none" stroke="#7b8894" d="M843,-649.02C843,-649.02 843,-592.04 843,-592.04"/>
<polygon fill="#7b8894" stroke="#7b8894" points="846.5,-592.04 843,-582.04 839.5,-592.04 846.5,-592.04"/>
</g>
<!-- fcf0f5926e734f9e81391c33b98f25a0 -->
<g id="node18" class="node">
<title>fcf0f5926e734f9e81391c33b98f25a0</title>
<image xlink:href="D:\testProject\my_icons\switch.svg" width="57.6px" height="43.4717px" preserveAspectRatio="xMinYMin meet" x="814.2" y="-328.686"/>
<text xml:space="preserve" text-anchor="middle" x="843" y="-244.3" font-family="Sans-Serif" font-size="20.00" fill="#2d3436">WiFi AP</text>
</g>
<!-- fcc40aa3b8624096b3f4fa7aed9dd979&#45;&gt;fcf0f5926e734f9e81391c33b98f25a0 -->
<g id="edge17" class="edge">
<title>fcc40aa3b8624096b3f4fa7aed9dd979&#45;&gt;fcf0f5926e734f9e81391c33b98f25a0</title>
<path fill="none" stroke="#7b8894" d="M843,-443.82C843,-443.82 843,-386.84 843,-386.84"/>
<polygon fill="#7b8894" stroke="#7b8894" points="846.5,-386.84 843,-376.84 839.5,-386.84 846.5,-386.84"/>
</g>
<!-- 672f1b6654e7409c8394c1c22d9ea270 -->
<g id="node19" class="node">
<title>672f1b6654e7409c8394c1c22d9ea270</title>
<image xlink:href="D:\testProject\my_icons\users.svg" width="57.6px" height="53.8318px" preserveAspectRatio="xMinYMin meet" x="814.2" y="-143.066"/>
<text xml:space="preserve" text-anchor="middle" x="843" y="-49" font-family="Sans-Serif" font-size="20.00" fill="#2d3436">访客</text>
</g>
<!-- fcf0f5926e734f9e81391c33b98f25a0&#45;&gt;672f1b6654e7409c8394c1c22d9ea270 -->
<g id="edge18" class="edge">
<title>fcf0f5926e734f9e81391c33b98f25a0&#45;&gt;672f1b6654e7409c8394c1c22d9ea270</title>
<path fill="none" stroke="#7b8894" d="M843,-238.61C843,-220.96 843,-201.97 843,-184.34"/>
</g>
</g>
</svg>
