<?xml version="1.0" encoding="UTF-8" standalone="no"?>
<!DOCTYPE svg PUBLIC "-//W3C//DTD SVG 1.1//EN"
 "http://www.w3.org/Graphics/SVG/1.1/DTD/svg11.dtd">
<!-- Generated by graphviz version 13.1.0 (20250701.0955)
 -->
<!-- Title: 企业网络拓扑 (半复杂版&#45;本地图标) Pages: 1 -->
<svg width="1255pt" height="1837pt"
 viewBox="0.00 0.00 1255.00 1837.00" xmlns="http://www.w3.org/2000/svg" xmlns:xlink="http://www.w3.org/1999/xlink">
<g id="graph0" class="graph" transform="scale(1 1) rotate(0) translate(144 1692.95)">
<title>企业网络拓扑 (半复杂版&#45;本地图标)</title>
<text xml:space="preserve" text-anchor="middle" x="483.5" y="-8.35" font-family="Sans-Serif" font-size="12.00" fill="#2d3436">企业网络拓扑 (半复杂版&#45;本地图标)</text>
<g id="clust1" class="cluster">
<title>cluster_边界区 (192.168.1.0/24)</title>
<path fill="#e5f5fd" stroke="#aeb6be" d="M537,-1022.55C537,-1022.55 661,-1022.55 661,-1022.55 667,-1022.55 673,-1028.55 673,-1034.55 673,-1034.55 673,-1377.9 673,-1377.9 673,-1383.9 667,-1389.9 661,-1389.9 661,-1389.9 537,-1389.9 537,-1389.9 531,-1389.9 525,-1383.9 525,-1377.9 525,-1377.9 525,-1034.55 525,-1034.55 525,-1028.55 531,-1022.55 537,-1022.55"/>
<text xml:space="preserve" text-anchor="middle" x="599" y="-1374.5" font-family="Sans-Serif" font-size="12.00" fill="#2d3436">边界区 (192.168.1.0/24)</text>
</g>
<g id="clust2" class="cluster">
<title>cluster_内部网络 (10.0.0.0/8)</title>
<path fill="#e5f5fd" stroke="#aeb6be" d="M20,-31.75C20,-31.75 786,-31.75 786,-31.75 792,-31.75 798,-37.75 798,-43.75 798,-43.75 798,-805.5 798,-805.5 798,-811.5 792,-817.5 786,-817.5 786,-817.5 20,-817.5 20,-817.5 14,-817.5 8,-811.5 8,-805.5 8,-805.5 8,-43.75 8,-43.75 8,-37.75 14,-31.75 20,-31.75"/>
<text xml:space="preserve" text-anchor="middle" x="74.5" y="-802.1" font-family="Sans-Serif" font-size="12.00" fill="#2d3436">内部网络 (10.0.0.0/8)</text>
</g>
<g id="clust3" class="cluster">
<title>cluster_内部网络 基础服务 (10.0.0.0/22)</title>
<path fill="#ebf3e7" stroke="#aeb6be" d="M28,-421.35C28,-421.35 381,-421.35 381,-421.35 387,-421.35 393,-427.35 393,-433.35 393,-433.35 393,-614.7 393,-614.7 393,-620.7 387,-626.7 381,-626.7 381,-626.7 28,-626.7 28,-626.7 22,-626.7 16,-620.7 16,-614.7 16,-614.7 16,-433.35 16,-433.35 16,-427.35 22,-421.35 28,-421.35"/>
<text xml:space="preserve" text-anchor="middle" x="112.88" y="-611.3" font-family="Sans-Serif" font-size="12.00" fill="#2d3436">内部网络 基础服务 (10.0.0.0/22)</text>
</g>
<g id="clust4" class="cluster">
<title>cluster_内部网络 内部服务 (10.8.1.0/24)</title>
<path fill="#ebf3e7" stroke="#aeb6be" d="M413,-39.75C413,-39.75 582,-39.75 582,-39.75 588,-39.75 594,-45.75 594,-51.75 594,-51.75 594,-600.3 594,-600.3 594,-606.3 588,-612.3 582,-612.3 582,-612.3 413,-612.3 413,-612.3 407,-612.3 401,-606.3 401,-600.3 401,-600.3 401,-51.75 401,-51.75 401,-45.75 407,-39.75 413,-39.75"/>
<text xml:space="preserve" text-anchor="middle" x="497.88" y="-596.9" font-family="Sans-Serif" font-size="12.00" fill="#2d3436">内部网络 内部服务 (10.8.1.0/24)</text>
</g>
<g id="clust5" class="cluster">
<title>cluster_内部网络 办公区 (10.16.1.0/24)</title>
<path fill="#ebf3e7" stroke="#aeb6be" d="M614,-230.55C614,-230.55 778,-230.55 778,-230.55 784,-230.55 790,-236.55 790,-242.55 790,-242.55 790,-600.3 790,-600.3 790,-606.3 784,-612.3 778,-612.3 778,-612.3 614,-612.3 614,-612.3 608,-612.3 602,-606.3 602,-600.3 602,-600.3 602,-242.55 602,-242.55 602,-236.55 608,-230.55 614,-230.55"/>
<text xml:space="preserve" text-anchor="middle" x="696.25" y="-596.9" font-family="Sans-Serif" font-size="12.00" fill="#2d3436">内部网络 办公区 (10.16.1.0/24)</text>
</g>
<g id="clust6" class="cluster">
<title>cluster_访客网络 (172.16.0.0/14)</title>
<path fill="#e5f5fd" stroke="#aeb6be" d="M818,-39.75C818,-39.75 947,-39.75 947,-39.75 953,-39.75 959,-45.75 959,-51.75 959,-51.75 959,-805.5 959,-805.5 959,-811.5 953,-817.5 947,-817.5 947,-817.5 818,-817.5 818,-817.5 812,-817.5 806,-811.5 806,-805.5 806,-805.5 806,-51.75 806,-51.75 806,-45.75 812,-39.75 818,-39.75"/>
<text xml:space="preserve" text-anchor="middle" x="882.62" y="-802.1" font-family="Sans-Serif" font-size="12.00" fill="#2d3436">访客网络 (172.16.0.0/14)</text>
</g>
<!-- 655f6412210c4f71bb7555ada37a0c0a -->
<g id="node1" class="node">
<title>655f6412210c4f71bb7555ada37a0c0a</title>
<image xlink:href="D:\testProject\my_icons\internet.svg" width="57.6px" height="38.1457px" preserveAspectRatio="xMinYMin meet" x="570.2" y="-1499.62"/>
<text xml:space="preserve" text-anchor="middle" x="599" y="-1417.9" font-family="Sans-Serif" font-size="20.00" fill="#2d3436">公网 / Internet</text>
</g>
<!-- f855daccbca543d199ca252d5e64fc41 -->
<g id="node2" class="node">
<title>f855daccbca543d199ca252d5e64fc41</title>
<image xlink:href="D:\testProject\my_icons\firewall.svg" width="57.6px" height="57.6px" preserveAspectRatio="xMinYMin meet" x="570.2" y="-1318.55"/>
<text xml:space="preserve" text-anchor="middle" x="599" y="-1222.6" font-family="Sans-Serif" font-size="20.00" fill="#2d3436">主防火墙</text>
</g>
<!-- 655f6412210c4f71bb7555ada37a0c0a&#45;&gt;f855daccbca543d199ca252d5e64fc41 -->
<g id="edge1" class="edge">
<title>655f6412210c4f71bb7555ada37a0c0a&#45;&gt;f855daccbca543d199ca252d5e64fc41</title>
<path fill="none" stroke="#7b8894" d="M599,-1412.21C599,-1412.21 599,-1369.45 599,-1369.45"/>
<polygon fill="#7b8894" stroke="#7b8894" points="602.5,-1369.45 599,-1359.45 595.5,-1369.45 602.5,-1369.45"/>
</g>
<!-- d518eebc805a4752b155af48c661b41d -->
<g id="node3" class="node">
<title>d518eebc805a4752b155af48c661b41d</title>
<image xlink:href="D:\testProject\my_icons\switch.svg" width="57.6px" height="43.4717px" preserveAspectRatio="xMinYMin meet" x="570.2" y="-1120.69"/>
<text xml:space="preserve" text-anchor="middle" x="599" y="-1036.3" font-family="Sans-Serif" font-size="20.00" fill="#2d3436">NAT网关</text>
</g>
<!-- f855daccbca543d199ca252d5e64fc41&#45;&gt;d518eebc805a4752b155af48c661b41d -->
<g id="edge2" class="edge">
<title>f855daccbca543d199ca252d5e64fc41&#45;&gt;d518eebc805a4752b155af48c661b41d</title>
<path fill="none" stroke="#7b8894" d="M599,-1221.41C599,-1221.41 599,-1178.65 599,-1178.65"/>
<polygon fill="#7b8894" stroke="#7b8894" points="602.5,-1178.65 599,-1168.65 595.5,-1178.65 602.5,-1178.65"/>
</g>
<!-- 74c68160ff8f4eefa67200dd7b62dfed -->
<g id="node4" class="node">
<title>74c68160ff8f4eefa67200dd7b62dfed</title>
<image xlink:href="D:\testProject\my_icons\router.svg" width="57.6px" height="46.08px" preserveAspectRatio="xMinYMin meet" x="570.2" y="-931.19"/>
<text xml:space="preserve" text-anchor="middle" x="599" y="-841" font-family="Sans-Serif" font-size="20.00" fill="#2d3436">核心路由器</text>
</g>
<!-- d518eebc805a4752b155af48c661b41d&#45;&gt;74c68160ff8f4eefa67200dd7b62dfed -->
<g id="edge3" class="edge">
<title>d518eebc805a4752b155af48c661b41d&#45;&gt;74c68160ff8f4eefa67200dd7b62dfed</title>
<path fill="none" stroke="#7b8894" d="M599,-1030.61C599,-1030.61 599,-987.85 599,-987.85"/>
<polygon fill="#7b8894" stroke="#7b8894" points="602.5,-987.85 599,-977.85 595.5,-987.85 602.5,-987.85"/>
</g>
<!-- 243aa95cee194629a298ff4591548967 -->
<g id="node5" class="node">
<title>243aa95cee194629a298ff4591548967</title>
<image xlink:href="D:\testProject\my_icons\switch.svg" width="57.6px" height="43.4717px" preserveAspectRatio="xMinYMin meet" x="327.2" y="-739.086"/>
<text xml:space="preserve" text-anchor="middle" x="356" y="-654.7" font-family="Sans-Serif" font-size="20.00" fill="#2d3436">核心交换机 (三层)</text>
</g>
<!-- 74c68160ff8f4eefa67200dd7b62dfed&#45;&gt;243aa95cee194629a298ff4591548967 -->
<g id="edge4" class="edge">
<title>74c68160ff8f4eefa67200dd7b62dfed&#45;&gt;243aa95cee194629a298ff4591548967</title>
<path fill="none" stroke="#7b8894" d="M590.2,-839.82C590.2,-789.84 590.2,-730.75 590.2,-730.75 590.2,-730.75 396.23,-730.75 396.23,-730.75"/>
<polygon fill="#7b8894" stroke="#7b8894" points="396.23,-727.25 386.23,-730.75 396.23,-734.25 396.23,-727.25"/>
</g>
<!-- b922d0b577844ce3a5d3643e79acc035 -->
<g id="node16" class="node">
<title>b922d0b577844ce3a5d3643e79acc035</title>
<image xlink:href="D:\testProject\my_icons\firewall.svg" width="57.6px" height="57.6px" preserveAspectRatio="xMinYMin meet" x="814.2" y="-746.15"/>
<text xml:space="preserve" text-anchor="middle" x="843" y="-650.2" font-family="Sans-Serif" font-size="20.00" fill="#2d3436">访客区防火墙</text>
</g>
<!-- 74c68160ff8f4eefa67200dd7b62dfed&#45;&gt;b922d0b577844ce3a5d3643e79acc035 -->
<g id="edge15" class="edge">
<title>74c68160ff8f4eefa67200dd7b62dfed&#45;&gt;b922d0b577844ce3a5d3643e79acc035</title>
<path fill="none" stroke="#7b8894" d="M621.93,-840.01C621.93,-800.61 621.93,-758.75 621.93,-758.75 621.93,-758.75 803.04,-758.75 803.04,-758.75"/>
<polygon fill="#7b8894" stroke="#7b8894" points="803.04,-762.25 813.04,-758.75 803.04,-755.25 803.04,-762.25"/>
</g>
<!-- eb5b268223724f00af73890a069f2a21 -->
<g id="node6" class="node">
<title>eb5b268223724f00af73890a069f2a21</title>
<image xlink:href="D:\testProject\my_icons\activedirectory.svg" width="57.6px" height="57.6px" preserveAspectRatio="xMinYMin meet" x="24.2" y="-540.95"/>
<text xml:space="preserve" text-anchor="middle" x="53" y="-449.5" font-family="Sans-Serif" font-size="20.00" fill="#2d3436">AD DC</text>
</g>
<!-- 243aa95cee194629a298ff4591548967&#45;&gt;eb5b268223724f00af73890a069f2a21 -->
<g id="edge5" class="edge">
<title>243aa95cee194629a298ff4591548967&#45;&gt;eb5b268223724f00af73890a069f2a21</title>
<path fill="none" stroke="darkgreen" d="M327.22,-751.75C251.59,-751.75 53,-751.75 53,-751.75 53,-751.75 53,-592 53,-592"/>
<polygon fill="darkgreen" stroke="darkgreen" points="56.5,-592 53,-582 49.5,-592 56.5,-592"/>
</g>
<!-- b757b6a79a2848968a0209f690022813 -->
<g id="node7" class="node">
<title>b757b6a79a2848968a0209f690022813</title>
<image xlink:href="D:\testProject\my_icons\coredns.svg" width="57.6px" height="57.6px" preserveAspectRatio="xMinYMin meet" x="125.2" y="-540.95"/>
<text xml:space="preserve" text-anchor="middle" x="154" y="-449.5" font-family="Sans-Serif" font-size="20.00" fill="#2d3436">DNS Server</text>
</g>
<!-- 243aa95cee194629a298ff4591548967&#45;&gt;b757b6a79a2848968a0209f690022813 -->
<g id="edge6" class="edge">
<title>243aa95cee194629a298ff4591548967&#45;&gt;b757b6a79a2848968a0209f690022813</title>
<path fill="none" stroke="darkgreen" d="M327.49,-717.75C271.81,-717.75 154,-717.75 154,-717.75 154,-717.75 154,-591.84 154,-591.84"/>
<polygon fill="darkgreen" stroke="darkgreen" points="157.5,-591.84 154,-581.84 150.5,-591.84 157.5,-591.84"/>
</g>
<!-- c33c13aa30fc44919ad5263b06f7579d -->
<g id="node8" class="node">
<title>c33c13aa30fc44919ad5263b06f7579d</title>
<image xlink:href="D:\testProject\my_icons\smtp_server.svg" width="57.6px" height="57.6px" preserveAspectRatio="xMinYMin meet" x="226.2" y="-540.95"/>
<text xml:space="preserve" text-anchor="middle" x="255" y="-449.5" font-family="Sans-Serif" font-size="20.00" fill="#2d3436">SMTP Server</text>
</g>
<!-- 243aa95cee194629a298ff4591548967&#45;&gt;c33c13aa30fc44919ad5263b06f7579d -->
<g id="edge7" class="edge">
<title>243aa95cee194629a298ff4591548967&#45;&gt;c33c13aa30fc44919ad5263b06f7579d</title>
<path fill="none" stroke="darkgreen" d="M327.33,-682.75C297.47,-682.75 255,-682.75 255,-682.75 255,-682.75 255,-591.58 255,-591.58"/>
<polygon fill="darkgreen" stroke="darkgreen" points="258.5,-591.58 255,-581.58 251.5,-591.58 258.5,-591.58"/>
</g>
<!-- dcc079de16f14a30a76118ed905e683d -->
<g id="node9" class="node">
<title>dcc079de16f14a30a76118ed905e683d</title>
<image xlink:href="D:\testProject\my_icons\server.svg" width="57.6px" height="57.6px" preserveAspectRatio="xMinYMin meet" x="327.2" y="-540.95"/>
<text xml:space="preserve" text-anchor="middle" x="356" y="-459.85" font-family="Sans-Serif" font-size="20.00" fill="#2d3436">Jump Server</text>
<text xml:space="preserve" text-anchor="middle" x="356" y="-435.1" font-family="Sans-Serif" font-size="20.00" fill="#2d3436">(堡垒机)</text>
</g>
<!-- 243aa95cee194629a298ff4591548967&#45;&gt;dcc079de16f14a30a76118ed905e683d -->
<g id="edge8" class="edge">
<title>243aa95cee194629a298ff4591548967&#45;&gt;dcc079de16f14a30a76118ed905e683d</title>
<path fill="none" stroke="darkgreen" d="M356,-649.02C356,-649.02 356,-606.31 356,-606.31"/>
<polygon fill="darkgreen" stroke="darkgreen" points="359.5,-606.31 356,-596.31 352.5,-606.31 359.5,-606.31"/>
</g>
<!-- f27ec6ca18ff4912abbff6eb444e10ea -->
<g id="node10" class="node">
<title>f27ec6ca18ff4912abbff6eb444e10ea</title>
<image xlink:href="D:\testProject\my_icons\waf.svg" width="57.6px" height="57.6px" preserveAspectRatio="xMinYMin meet" x="428.2" y="-540.95"/>
<text xml:space="preserve" text-anchor="middle" x="457" y="-449.5" font-family="Sans-Serif" font-size="20.00" fill="#2d3436">WAF / 反代</text>
</g>
<!-- 243aa95cee194629a298ff4591548967&#45;&gt;f27ec6ca18ff4912abbff6eb444e10ea -->
<g id="edge9" class="edge">
<title>243aa95cee194629a298ff4591548967&#45;&gt;f27ec6ca18ff4912abbff6eb444e10ea</title>
<path fill="none" stroke="blue" d="M384.67,-676.75C414.53,-676.75 457,-676.75 457,-676.75 457,-676.75 457,-592.04 457,-592.04"/>
<polygon fill="blue" stroke="blue" points="460.5,-592.04 457,-582.04 453.5,-592.04 460.5,-592.04"/>
</g>
<!-- 998a0991381e4752bbfdccb9d9b9b18f -->
<g id="node13" class="node">
<title>998a0991381e4752bbfdccb9d9b9b18f</title>
<image xlink:href="D:\testProject\my_icons\switch.svg" width="57.6px" height="43.4717px" preserveAspectRatio="xMinYMin meet" x="610.2" y="-533.886"/>
<text xml:space="preserve" text-anchor="middle" x="639" y="-445" font-family="Sans-Serif" font-size="20.00" fill="#2d3436">办公区接入交换机</text>
</g>
<!-- 243aa95cee194629a298ff4591548967&#45;&gt;998a0991381e4752bbfdccb9d9b9b18f -->
<g id="edge12" class="edge">
<title>243aa95cee194629a298ff4591548967&#45;&gt;998a0991381e4752bbfdccb9d9b9b18f</title>
<path fill="none" stroke="purple" d="M384.33,-703.75C451.73,-703.75 616.07,-703.75 616.07,-703.75 616.07,-703.75 616.07,-592.02 616.07,-592.02"/>
<polygon fill="purple" stroke="purple" points="619.57,-592.02 616.07,-582.02 612.57,-592.02 619.57,-592.02"/>
</g>
<!-- 3a77f8c0fe094244a83bc8dd5540b067 -->
<g id="node11" class="node">
<title>3a77f8c0fe094244a83bc8dd5540b067</title>
<image xlink:href="D:\testProject\my_icons\server.svg" width="57.6px" height="57.6px" preserveAspectRatio="xMinYMin meet" x="428.2" y="-335.75"/>
<text xml:space="preserve" text-anchor="middle" x="457" y="-239.8" font-family="Sans-Serif" font-size="20.00" fill="#2d3436">应用服务器</text>
</g>
<!-- f27ec6ca18ff4912abbff6eb444e10ea&#45;&gt;3a77f8c0fe094244a83bc8dd5540b067 -->
<g id="edge10" class="edge">
<title>f27ec6ca18ff4912abbff6eb444e10ea&#45;&gt;3a77f8c0fe094244a83bc8dd5540b067</title>
<path fill="none" stroke="#7b8894" d="M457,-443.82C457,-443.82 457,-386.84 457,-386.84"/>
<polygon fill="#7b8894" stroke="#7b8894" points="460.5,-386.84 457,-376.84 453.5,-386.84 460.5,-386.84"/>
</g>
<!-- 72157fb144fd4d31b710124e0750472f -->
<g id="node12" class="node">
<title>72157fb144fd4d31b710124e0750472f</title>
<image xlink:href="D:\testProject\my_icons\server.svg" width="57.6px" height="57.6px" preserveAspectRatio="xMinYMin meet" x="428.2" y="-144.95"/>
<text xml:space="preserve" text-anchor="middle" x="457" y="-49" font-family="Sans-Serif" font-size="20.00" fill="#2d3436">数据库服务器</text>
</g>
<!-- 3a77f8c0fe094244a83bc8dd5540b067&#45;&gt;72157fb144fd4d31b710124e0750472f -->
<g id="edge11" class="edge">
<title>3a77f8c0fe094244a83bc8dd5540b067&#45;&gt;72157fb144fd4d31b710124e0750472f</title>
<path fill="none" stroke="#7b8894" d="M457,-238.61C457,-238.61 457,-195.85 457,-195.85"/>
<polygon fill="#7b8894" stroke="#7b8894" points="460.5,-195.85 457,-185.85 453.5,-195.85 460.5,-195.85"/>
</g>
<!-- 8d10e5ea6d6a4feaa6ff77fbf2694569 -->
<g id="node14" class="node">
<title>8d10e5ea6d6a4feaa6ff77fbf2694569</title>
<image xlink:href="D:\testProject\my_icons\client.svg" width="57.6px" height="57.6px" preserveAspectRatio="xMinYMin meet" x="660.2" y="-335.75"/>
<text xml:space="preserve" text-anchor="middle" x="689" y="-239.8" font-family="Sans-Serif" font-size="20.00" fill="#2d3436">办公电脑</text>
</g>
<!-- 998a0991381e4752bbfdccb9d9b9b18f&#45;&gt;8d10e5ea6d6a4feaa6ff77fbf2694569 -->
<g id="edge13" class="edge">
<title>998a0991381e4752bbfdccb9d9b9b18f&#45;&gt;8d10e5ea6d6a4feaa6ff77fbf2694569</title>
<path fill="none" stroke="#7b8894" d="M664,-443.82C664,-443.82 664,-386.84 664,-386.84"/>
<polygon fill="#7b8894" stroke="#7b8894" points="667.5,-386.84 664,-376.84 660.5,-386.84 667.5,-386.84"/>
</g>
<!-- 8a08d1e50d614860a442337983827623 -->
<g id="node15" class="node">
<title>8a08d1e50d614860a442337983827623</title>
<image xlink:href="D:\testProject\my_icons\user.svg" width="57.6px" height="57.6px" preserveAspectRatio="xMinYMin meet" x="711.2" y="-540.95"/>
<text xml:space="preserve" text-anchor="middle" x="740" y="-445" font-family="Sans-Serif" font-size="20.00" fill="#2d3436">员工</text>
</g>
<!-- 8a08d1e50d614860a442337983827623&#45;&gt;8d10e5ea6d6a4feaa6ff77fbf2694569 -->
<g id="edge14" class="edge">
<title>8a08d1e50d614860a442337983827623&#45;&gt;8d10e5ea6d6a4feaa6ff77fbf2694569</title>
<path fill="none" stroke="#7b8894" d="M711.21,-511.75C699.87,-511.75 689.5,-511.75 689.5,-511.75 689.5,-511.75 689.5,-434.72 689.5,-375.15"/>
</g>
<!-- d7639991fd2945f28dfb6155e53c2fcb -->
<g id="node17" class="node">
<title>d7639991fd2945f28dfb6155e53c2fcb</title>
<image xlink:href="D:\testProject\my_icons\portal.svg" width="57.6px" height="57.6px" preserveAspectRatio="xMinYMin meet" x="814.2" y="-540.95"/>
<text xml:space="preserve" text-anchor="middle" x="843" y="-449.5" font-family="Sans-Serif" font-size="20.00" fill="#2d3436">Portal认证</text>
</g>
<!-- b922d0b577844ce3a5d3643e79acc035&#45;&gt;d7639991fd2945f28dfb6155e53c2fcb -->
<g id="edge16" class="edge">
<title>b922d0b577844ce3a5d3643e79acc035&#45;&gt;d7639991fd2945f28dfb6155e53c2fcb</title>
<path fill="none" stroke="#7b8894" d="M843,-649.02C843,-649.02 843,-592.04 843,-592.04"/>
<polygon fill="#7b8894" stroke="#7b8894" points="846.5,-592.04 843,-582.04 839.5,-592.04 846.5,-592.04"/>
</g>
<!-- 102daedaef1c40daae64cc3c9b808e4d -->
<g id="node18" class="node">
<title>102daedaef1c40daae64cc3c9b808e4d</title>
<image xlink:href="D:\testProject\my_icons\switch.svg" width="57.6px" height="43.4717px" preserveAspectRatio="xMinYMin meet" x="814.2" y="-328.686"/>
<text xml:space="preserve" text-anchor="middle" x="843" y="-244.3" font-family="Sans-Serif" font-size="20.00" fill="#2d3436">WiFi AP</text>
</g>
<!-- d7639991fd2945f28dfb6155e53c2fcb&#45;&gt;102daedaef1c40daae64cc3c9b808e4d -->
<g id="edge17" class="edge">
<title>d7639991fd2945f28dfb6155e53c2fcb&#45;&gt;102daedaef1c40daae64cc3c9b808e4d</title>
<path fill="none" stroke="#7b8894" d="M843,-443.82C843,-443.82 843,-386.84 843,-386.84"/>
<polygon fill="#7b8894" stroke="#7b8894" points="846.5,-386.84 843,-376.84 839.5,-386.84 846.5,-386.84"/>
</g>
<!-- a0541754b3a14bdc8f0be14c9c9132f3 -->
<g id="node19" class="node">
<title>a0541754b3a14bdc8f0be14c9c9132f3</title>
<image xlink:href="D:\testProject\my_icons\users.svg" width="57.6px" height="53.8318px" preserveAspectRatio="xMinYMin meet" x="814.2" y="-143.066"/>
<text xml:space="preserve" text-anchor="middle" x="843" y="-49" font-family="Sans-Serif" font-size="20.00" fill="#2d3436">访客</text>
</g>
<!-- 102daedaef1c40daae64cc3c9b808e4d&#45;&gt;a0541754b3a14bdc8f0be14c9c9132f3 -->
<g id="edge18" class="edge">
<title>102daedaef1c40daae64cc3c9b808e4d&#45;&gt;a0541754b3a14bdc8f0be14c9c9132f3</title>
<path fill="none" stroke="#7b8894" d="M843,-238.61C843,-220.96 843,-201.97 843,-184.34"/>
</g>
</g>
</svg>
