<?xml version="1.0" encoding="UTF-8" standalone="no"?>
<!DOCTYPE svg PUBLIC "-//W3C//DTD SVG 1.1//EN"
 "http://www.w3.org/Graphics/SVG/1.1/DTD/svg11.dtd">
<!-- Generated by graphviz version 13.1.0 (20250701.0955)
 -->
<!-- Title: 企业网络拓扑 (本地SVG图标) Pages: 1 -->
<svg width="564pt" height="1074pt"
 viewBox="0.00 0.00 564.00 1074.00" xmlns="http://www.w3.org/2000/svg" xmlns:xlink="http://www.w3.org/1999/xlink">
<g id="graph0" class="graph" transform="scale(1 1) rotate(0) translate(144 929.7)">
<title>企业网络拓扑 (本地SVG图标)</title>
<text xml:space="preserve" text-anchor="middle" x="138" y="-8.35" font-family="Sans-Serif" font-size="12.00" fill="#2d3436">企业网络拓扑 (本地SVG图标)</text>
<g id="clust1" class="cluster">
<title>cluster_公司网络边界</title>
<path fill="#e5f5fd" stroke="#aeb6be" d="M92,-413.35C92,-413.35 184,-413.35 184,-413.35 190,-413.35 196,-419.35 196,-425.35 196,-425.35 196,-765.7 196,-765.7 196,-771.7 190,-777.7 184,-777.7 184,-777.7 92,-777.7 92,-777.7 86,-777.7 80,-771.7 80,-765.7 80,-765.7 80,-425.35 80,-425.35 80,-419.35 86,-413.35 92,-413.35"/>
<text xml:space="preserve" text-anchor="middle" x="124" y="-762.3" font-family="Sans-Serif" font-size="12.00" fill="#2d3436">公司网络边界</text>
</g>
<g id="clust2" class="cluster">
<title>cluster_核心网络</title>
<path fill="#e5f5fd" stroke="#aeb6be" d="M92,-222.55C92,-222.55 184,-222.55 184,-222.55 190,-222.55 196,-228.55 196,-234.55 196,-234.55 196,-384.1 196,-384.1 196,-390.1 190,-396.1 184,-396.1 184,-396.1 92,-396.1 92,-396.1 86,-396.1 80,-390.1 80,-384.1 80,-384.1 80,-234.55 80,-234.55 80,-228.55 86,-222.55 92,-222.55"/>
<text xml:space="preserve" text-anchor="middle" x="112" y="-380.7" font-family="Sans-Serif" font-size="12.00" fill="#2d3436">核心网络</text>
</g>
<g id="clust3" class="cluster">
<title>cluster_服务器区</title>
<path fill="#e5f5fd" stroke="#aeb6be" d="M20,-31.75C20,-31.75 256,-31.75 256,-31.75 262,-31.75 268,-37.75 268,-43.75 268,-43.75 268,-193.3 268,-193.3 268,-199.3 262,-205.3 256,-205.3 256,-205.3 20,-205.3 20,-205.3 14,-205.3 8,-199.3 8,-193.3 8,-193.3 8,-43.75 8,-43.75 8,-37.75 14,-31.75 20,-31.75"/>
<text xml:space="preserve" text-anchor="middle" x="40" y="-189.9" font-family="Sans-Serif" font-size="12.00" fill="#2d3436">服务器区</text>
</g>
<!-- 4934176faba74e59a9cb492709f31033 -->
<g id="node1" class="node">
<title>4934176faba74e59a9cb492709f31033</title>
<image xlink:href="D:\testProject\my_icons\router.svg" width="100.8px" height="80.64px" preserveAspectRatio="xMinYMin meet" x="87.6" y="-720.87"/>
<text xml:space="preserve" text-anchor="middle" x="138" y="-613.3" font-family="Sans-Serif" font-size="13.00" fill="#2d3436">核心路由器</text>
</g>
<!-- 0694027fa2cf4a0d958e406bed590ea7 -->
<g id="node2" class="node">
<title>0694027fa2cf4a0d958e406bed590ea7</title>
<image xlink:href="D:\testProject\my_icons\firewall.svg" width="100.8px" height="100.8px" preserveAspectRatio="xMinYMin meet" x="87.6" y="-540.15"/>
<text xml:space="preserve" text-anchor="middle" x="138" y="-422.5" font-family="Sans-Serif" font-size="13.00" fill="#2d3436">防火墙</text>
</g>
<!-- 4934176faba74e59a9cb492709f31033&#45;&gt;0694027fa2cf4a0d958e406bed590ea7 -->
<g id="edge1" class="edge">
<title>4934176faba74e59a9cb492709f31033&#45;&gt;0694027fa2cf4a0d958e406bed590ea7</title>
<path fill="none" stroke="#7b8894" d="M138,-612.21C138,-612.21 138,-569.45 138,-569.45"/>
<polygon fill="#7b8894" stroke="#7b8894" points="141.5,-569.45 138,-559.45 134.5,-569.45 141.5,-569.45"/>
</g>
<!-- 3353c0583f98424c9ac604c1f00c3786 -->
<g id="node3" class="node">
<title>3353c0583f98424c9ac604c1f00c3786</title>
<image xlink:href="D:\testProject\my_icons\switch.svg" width="100.8px" height="76.0755px" preserveAspectRatio="xMinYMin meet" x="87.6" y="-336.988"/>
<text xml:space="preserve" text-anchor="middle" x="138" y="-231.7" font-family="Sans-Serif" font-size="13.00" fill="#2d3436">核心交换机</text>
</g>
<!-- 0694027fa2cf4a0d958e406bed590ea7&#45;&gt;3353c0583f98424c9ac604c1f00c3786 -->
<g id="edge2" class="edge">
<title>0694027fa2cf4a0d958e406bed590ea7&#45;&gt;3353c0583f98424c9ac604c1f00c3786</title>
<path fill="none" stroke="#7b8894" d="M138,-421.41C138,-421.41 138,-378.65 138,-378.65"/>
<polygon fill="#7b8894" stroke="#7b8894" points="141.5,-378.65 138,-368.65 134.5,-378.65 141.5,-378.65"/>
</g>
<!-- 7ab66e1930c545e4ab3fafde0bc8c4ef -->
<g id="node4" class="node">
<title>7ab66e1930c545e4ab3fafde0bc8c4ef</title>
<image xlink:href="D:\testProject\my_icons\server.svg" width="100.8px" height="100.8px" preserveAspectRatio="xMinYMin meet" x="15.6" y="-158.55"/>
<text xml:space="preserve" text-anchor="middle" x="66" y="-43.9" font-family="Sans-Serif" font-size="13.00" fill="#2d3436">Web服务器</text>
</g>
<!-- 3353c0583f98424c9ac604c1f00c3786&#45;&gt;7ab66e1930c545e4ab3fafde0bc8c4ef -->
<g id="edge3" class="edge">
<title>3353c0583f98424c9ac604c1f00c3786&#45;&gt;7ab66e1930c545e4ab3fafde0bc8c4ef</title>
<path fill="none" stroke="#7b8894" d="M102,-230.61C102,-230.61 102,-187.85 102,-187.85"/>
<polygon fill="#7b8894" stroke="#7b8894" points="105.5,-187.85 102,-177.85 98.5,-187.85 105.5,-187.85"/>
</g>
<!-- 89c088f6a4d740199b6e90edbce4a60e -->
<g id="node5" class="node">
<title>89c088f6a4d740199b6e90edbce4a60e</title>
<image xlink:href="D:\testProject\my_icons\server.svg" width="100.8px" height="100.8px" preserveAspectRatio="xMinYMin meet" x="159.6" y="-158.55"/>
<text xml:space="preserve" text-anchor="middle" x="210" y="-40.9" font-family="Sans-Serif" font-size="13.00" fill="#2d3436">数据库服务器</text>
</g>
<!-- 3353c0583f98424c9ac604c1f00c3786&#45;&gt;89c088f6a4d740199b6e90edbce4a60e -->
<g id="edge4" class="edge">
<title>3353c0583f98424c9ac604c1f00c3786&#45;&gt;89c088f6a4d740199b6e90edbce4a60e</title>
<path fill="none" stroke="#7b8894" d="M174,-230.61C174,-230.61 174,-187.85 174,-187.85"/>
<polygon fill="#7b8894" stroke="#7b8894" points="177.5,-187.85 174,-177.85 170.5,-187.85 177.5,-187.85"/>
</g>
</g>
</svg>
