<?xml version="1.0" standalone="no"?><!DOCTYPE svg PUBLIC "-//W3C//DTD SVG 1.1//EN" "http://www.w3.org/Graphics/SVG/1.1/DTD/svg11.dtd"><svg t="1752916734896" class="icon" viewBox="0 0 1024 1024" version="1.1" xmlns="http://www.w3.org/2000/svg" p-id="35401" xmlns:xlink="http://www.w3.org/1999/xlink" width="200" height="200"><path d="M420.8 509.8c122.4 0 221.9-99.9 221.9-222.6 0-122.8-99.5-222.6-221.9-222.6s-222.1 99.9-222.1 222.6c-0.1 122.7 99.6 222.6 222.1 222.6zM762.4 565.3c-108.8 0-197.1 88.2-197.1 197.1 0 108.8 88.2 197.1 197.1 197.1 108.8 0 197.1-88.2 197.1-197.1 0-108.8-88.2-197.1-197.1-197.1z m132.5 168.4L759.6 869c-14.2 14.2-37.2 14.4-51.5 0.1-1-1-2-2.2-2.9-3.3l-68.9-68.9c-14.3-14.3-14.5-37.1-0.2-51.4 14.3-14.3 37.2-14.1 51.4 0.2L734 792l109.6-109.6c14.2-14.3 37.1-14.5 51.4-0.2 14.4 14.4 14.2 37.2-0.1 51.5z" fill="#1296db" p-id="35402"></path><path d="M572.2 572.2c9.5-9.5 19.5-18.1 30.1-26-9.8-3.4-19.9-6.2-30.2-8.4-0.3-0.1-0.5-0.1-0.8-0.2-1.4-0.3-2.9-0.6-4.3-0.9-0.3-0.1-0.6-0.1-0.9-0.2-2.3-0.5-4.7-0.9-7.1-1.3-0.9-0.2-1.8-0.3-2.7-0.4-1-0.2-2-0.3-3-0.5-1.2-0.2-2.5-0.4-3.7-0.5-0.7-0.1-1.5-0.2-2.2-0.3-1.9-0.2-3.9-0.5-5.8-0.7-0.7-0.1-1.3-0.1-2-0.2-1.6-0.2-3.2-0.3-4.7-0.4-0.5 0-1.1-0.1-1.6-0.1-2.1-0.2-4.2-0.3-6.3-0.4-0.4 0-0.7 0-1.1-0.1-1.8-0.1-3.6-0.2-5.5-0.2h-1.6c-2.1 0-4.3-0.1-6.5-0.1H345.7c-2.2 0-4.3 0-6.5 0.1h-1.6c-1.8 0.1-3.6 0.1-5.5 0.2-0.4 0-0.7 0-1.1 0.1-2.1 0.1-4.2 0.2-6.3 0.4-0.5 0-1.1 0.1-1.6 0.1-1.6 0.1-3.2 0.3-4.7 0.4-0.7 0.1-1.3 0.1-2 0.2-1.9 0.2-3.9 0.4-5.8 0.7-0.7 0.1-1.5 0.2-2.2 0.3-1.2 0.2-2.5 0.3-3.7 0.5-1 0.2-2 0.3-3 0.5-0.9 0.1-1.8 0.3-2.7 0.4-2.4 0.4-4.7 0.8-7.1 1.3-0.3 0.1-0.6 0.1-0.9 0.2-1.4 0.3-2.9 0.6-4.3 0.9-0.3 0.1-0.5 0.1-0.8 0.2-31.4 6.9-60.8 19-87.3 35.5-0.3 0.2-0.7 0.4-1 0.6-79.2 49.7-132.1 138-132.1 238.3v16.7c0 78 114.8 80.9 263.2 81h208.7c-28.6-43.4-43.9-94.3-43.9-147.5-0.2-71.9 27.8-139.4 78.7-190.2z" fill="#1296db" p-id="35403"></path></svg>