<?xml version="1.0" standalone="no"?><!DOCTYPE svg PUBLIC "-//W3C//DTD SVG 1.1//EN" "http://www.w3.org/Graphics/SVG/1.1/DTD/svg11.dtd"><svg t="1752916772957" class="icon" viewBox="0 0 1024 1024" version="1.1" xmlns="http://www.w3.org/2000/svg" p-id="36485" xmlns:xlink="http://www.w3.org/1999/xlink" width="200" height="200"><path d="M708.522667 323.84H106.666667C179.776 165.397333 337.962667 64 512 64s332.224 101.397333 405.333333 259.84h-208.810666zM329.322667 608.981333A97.92 97.92 0 0 1 279.466667 652.373333a104.32 104.32 0 0 1-6.336 2.176 120.853333 120.853333 0 0 1-35.413334 4.928h-0.32l-122.901333 0.362667V382.08l125.546667 0.554667c41.557333 0 71.978667 15.424 91.221333 46.293333 1.536 2.432 2.922667 5.013333 4.266667 7.658667 10.986667 21.653333 15.68 49.173333 15.68 79.893333 0 33.728-5.354667 61.077333-17.792 85.013333-1.28 2.56-2.624 5.034667-4.074667 7.466667h-0.021333z m-44.672-141.653333a59.605333 59.605333 0 0 0-13.845334-18.837333 42.410667 42.410667 0 0 0-18.346666-10.026667 80.170667 80.170667 0 0 0-21.845334-2.624H177.024v170.24h53.589333a66.133333 66.133333 0 0 0 15.210667-1.664 49.28 49.28 0 0 0 19.178667-9.066667 57.813333 57.813333 0 0 0 14.677333-17.493333 97.322667 97.322667 0 0 0 9.408-22.528 132.309333 132.309333 0 0 0 4.458667-36.586667c0-22.464-2.965333-38.869333-8.896-51.413333z m336.853333-85.248h11.093333v277.76l-12.970666-0.064-50.026667-0.298667-111.189333-183.317333v183.68h-62.528V382.08h66.986666l107.2 183.68v-183.68h51.456z m133.376 93.482667c5.76 3.605333 12.16 6.08 18.816 7.317333l67.584 16.576c22.784 5.653333 39.552 12.970667 50.325333 21.952 14.592 12.096 22.378667 32.64 22.378667 55.488 0 27.989333-9.728 46.592-28.202667 61.994667a106.090667 106.090667 0 0 1-46.016 21.845333 163.306667 163.306667 0 0 1-35.221333 3.584c-5.632 0-11.029333-0.170667-16.256-0.512-26.112-1.728-47.296-7.765333-63.573333-18.133333a81.642667 81.642667 0 0 1-29.290667-32.085334l-0.213333-0.384a89.045333 89.045333 0 0 1-9.045334-40.768h58.069334c0 11.306667 0.896 20.096 7.573333 27.541334 2.56 2.794667 5.461333 5.248 8.661333 7.253333 1.664 1.066667 3.413333 2.005333 5.184 2.837333 3.882667 1.813333 7.957333 3.2 12.138667 4.138667 7.381333 1.642667 14.933333 2.410667 22.506667 2.346667a92.757333 92.757333 0 0 0 39.253333-6.954667c7.018667-2.986667 12.672-8.490667 15.893333-15.424 1.792-4.266667 2.666667-8.832 2.602667-13.44a24.597333 24.597333 0 0 0-13.866667-22.72 83.818667 83.818667 0 0 0-13.653333-5.376 249.6 249.6 0 0 0-10.154667-2.986667 443.946667 443.946667 0 0 0-12.373333-3.2l-29.632-6.912a402.453333 402.453333 0 0 1-29.226667-7.914666c-5.632-1.792-10.666667-3.584-15.125333-5.376a85.397333 85.397333 0 0 1-16.085333-8.277334 58.624 58.624 0 0 1-20.48-25.365333 91.093333 91.093333 0 0 1-6.784-36.394667 84.181333 84.181333 0 0 1 2.666666-21.952 69.546667 69.546667 0 0 1 4.8-12.736c2.048-4.117333 4.458667-8.021333 7.210667-11.690666 1.408-1.877333 2.901333-3.733333 4.501333-5.546667a88.192 88.192 0 0 1 46.805334-26.816 168.618667 168.618667 0 0 1 40.192-4.394667 167.253333 167.253333 0 0 1 26.56 2.005334c24.832 3.989333 44.458667 13.973333 58.88 29.973333a90.218667 90.218667 0 0 1 22.762666 60.096h-58.069333c-0.32-2.773333-0.64-5.525333-1.002667-8.213333a104.469333 104.469333 0 0 0-1.344-7.765334 51.392 51.392 0 0 0-0.938666-3.562666 23.317333 23.317333 0 0 0-4.309334-8.576 41.770667 41.770667 0 0 0-18.624-12.138667 62.890667 62.890667 0 0 0-6.165333-1.770667 96.874667 96.874667 0 0 0-22.058667-2.261333c-3.52 0-7.04 0.213333-10.538666 0.618667a60.586667 60.586667 0 0 0-18.986667 5.077333c-0.874667 0.426667-1.877333 0.768-2.730667 1.237333-3.626667 1.962667-6.826667 4.586667-9.493333 7.722667l-0.106667 0.106667a28.053333 28.053333 0 0 0-6.144 18.368c-0.277333 6.357333 1.813333 12.586667 5.824 17.493333 1.344 1.536 2.858667 2.901333 4.522667 4.053333zM235.072 700.16H917.333333C844.224 858.602667 686.037333 960 512 960S179.776 858.602667 106.666667 700.16h128.426666zM708.266667 844.224l0.128-0.085333h-0.277334l0.149334 0.085333z m-391.274667 0l0.149333-0.085333h-0.256l0.106667 0.085333z" fill="#1296db" p-id="36486"></path></svg>