<?xml version="1.0" standalone="no"?><!DOCTYPE svg PUBLIC "-//W3C//DTD SVG 1.1//EN" "http://www.w3.org/Graphics/SVG/1.1/DTD/svg11.dtd"><svg t="1752914231710" class="icon" viewBox="0 0 1024 1024" version="1.1" xmlns="http://www.w3.org/2000/svg" p-id="12601" xmlns:xlink="http://www.w3.org/1999/xlink" width="200" height="200"><path d="M601.247953 526.68132L162.878785 273.588882C153.014003 267.893349 145.00438 273.947655 145.00438 287.101197v86.448023l456.243573 263.411668v-110.279568z" fill="#6D8ACA" p-id="12602"></path><path d="M788.068905 744.823218L145.00438 373.54922v91.571014l643.064525 371.273997v-91.571013z" fill="#6D8ACA" p-id="12603"></path><path d="M788.068905 836.394231L145.00438 465.120234v91.571013l643.064525 371.273997v-91.571013z" fill="#6D8ACA" p-id="12604"></path><path d="M788.068905 927.938336L145.00438 556.664339v91.571013l643.064525 371.273997V927.938336zM788.068905 653.225296l-186.798528-107.848876v91.571014l186.798528 107.848875v-91.571013z" fill="#6D8ACA" p-id="12605"></path><path d="M234.829361 246.452134c-10.734809-6.196321-26.996228-6.870517-36.292952-1.50386L153.426593 270.992257c-12.288 7.09475-10.745273 19.506826 3.444227 27.698826L775.623942 655.928058l84.219141-48.622808-625.013722-360.853116z" fill="#6D8ACA" p-id="12606"></path><path d="M318.318996 382.014785l-17.162838-9.909629v91.571013l17.162838 9.90963v-91.571014zM222.793997 428.37732l-17.162838-9.909629v91.571013l17.162838 9.909629v-91.571013zM373.126166 515.170663l-17.164332-9.909629v91.571013l17.164332 9.909629v-91.571013zM269.690207 547.02379L252.525874 537.114161v91.571013l17.164333 9.909629v-91.571013zM423.463615 635.805337l-17.162838-9.909629v91.571013l17.162838 9.909629v-91.571013zM318.318996 656.754733l-17.162838-9.909629v91.571013l17.162838 9.909629v-91.571013zM468.343218 743.371679l-17.162838-9.909629v91.571013l17.162838 9.909629v-91.571013zM654.250791 850.704818l-17.164333-9.90963v91.571013l17.164333 9.90963v-91.571013zM794.136666 931.467772l-17.162838-9.908134v91.571013l17.162838 9.909629v-91.572508zM591.966178 733.089822l-17.162838-9.909629v91.571013l17.162838 9.909629v-91.571013zM732.212321 814.060566l-17.164333-9.909629v91.571013l17.164333 9.90963v-91.571014zM535.853968 609.121542l-17.164333-9.90963v91.572508l17.164333 9.908135v-91.571013zM686.186137 695.91638l-17.164333-9.90963v91.571014l17.164333 9.909629V695.91638zM794.136666 758.241355l-17.162838-9.909629v91.572508l17.162838 9.908134v-91.571013z" fill="#D0DBF7" p-id="12607"></path><path d="M794.136666 849.812368l-17.162838-9.908134v91.571013l17.162838 9.908134v-91.571013zM794.136666 748.352654L145.00438 373.576128v19.777402l649.132286 374.776525v-19.777401zM794.136666 656.727825L145.88786 282.461057c-0.487334-0.281039-0.88348 0.017939-0.88348 0.668216v18.599428l649.132286 374.776525v-19.777401z" fill="#D0DBF7" p-id="12608"></path><path d="M794.136666 839.923667L145.00438 465.147142v19.777401l649.132286 374.776526v-19.777402zM794.136666 931.523083L145.00438 556.745063v19.777401l649.132286 374.776526v-19.775907zM476.925384 473.585799l-17.164333-9.90963v91.571013l17.164333 9.90963v-91.571013zM635.531772 565.156812l-17.164333-9.90963v91.571014l17.164333 9.909629v-91.571013zM794.136666 662.356088l-17.162838-9.90963v85.942751l17.162838 9.909629V662.356088zM376.745296 328.463323l-75.589138 43.641833 17.162838 9.909629 75.590633-43.641833-17.164333-9.909629z" fill="#D0DBF7" p-id="12609"></path><path d="M535.351685 420.034336l-75.590634 43.641833 17.164333 9.90963 75.590634-43.641834-17.164333-9.909629zM693.958073 511.605349l-75.590634 43.641833 17.164333 9.90963 75.589139-43.641834-17.162838-9.909629z" fill="#D0DBF7" p-id="12610"></path><path d="M863.659539 611.763013l-69.522873 40.139305v370.096024l69.522873-40.139306V611.763013z" fill="#6D8ACA" p-id="12611"></path><path d="M863.659539 891.383778l-69.522873 40.139305v19.775907l69.522873-40.13781v-19.777402zM863.659539 799.763434l-69.522873 40.13781v19.777401l69.522873-40.139305v-19.775906zM863.659539 708.161028l-69.522873 40.13781v19.777401l69.522873-40.139305v-19.775906zM852.628742 603.13899l-75.654914 43.679206 17.162838 9.909629 65.941115-38.070377c5.360677-3.095918 4.687977-8.510412-1.502365-12.084695l-5.946674-3.433763z" fill="#D0DBF7" p-id="12612"></path></svg>