<?xml version="1.0" standalone="no"?><!DOCTYPE svg PUBLIC "-//W3C//DTD SVG 1.1//EN" "http://www.w3.org/Graphics/SVG/1.1/DTD/svg11.dtd"><svg t="1752916592485" class="icon" viewBox="0 0 1544 1024" version="1.1" xmlns="http://www.w3.org/2000/svg" p-id="30569" xmlns:xlink="http://www.w3.org/1999/xlink" width="301.5625" height="200"><path d="M1133.484066 990.42623C1341.859672 990.42623 1510.819672 820.593311 1510.819672 611.042623S1341.859672 231.659016 1133.484066 231.659016c-26.959738 0-53.550164 2.85377-79.435541 8.41023l-12.758033 2.753049-5.808262-11.666885C975.65377 111.045246 853.445246 33.57377 717.454689 33.57377c-188.567082 0-344.080787 148.093902-354.841181 336.526689l-0.940065 16.417574-16.434361-0.587541a304.732328 304.732328 0 0 0-10.961836-0.201443C168.221377 385.729049 33.57377 521.064918 33.57377 688.060852 33.57377 855.107148 168.221377 990.42623 334.277246 990.42623c3.474885 0 6.932984-0.067148 10.374295-0.167869l17.357639-0.604328V990.42623h771.474886z m0-792.340984C1360.442754 198.085246 1544.393443 382.992787 1544.393443 611.042623S1360.442754 1024 1133.484066 1024H328.43541C146.499148 1020.810492 0 871.625443 0 688.077639c0-184.185705 147.506361-333.773639 330.332328-335.905573C349.754754 153.700721 516.398164 0 717.454689 0c144.501508 0 274.767738 79.905574 342.150295 204.749639a411.245115 411.245115 0 0 1 73.862295-6.664393z" fill="#1296db" p-id="30570"></path><path d="M260.935344 539.664787h24.475279V755.409836h-24.475279V539.664787z m139.901902 55.296c38.676984 0 58.317639 21.453639 58.317639 64.360918V755.409836h-24.173115v-94.275147c0-30.518557-13.899541-45.626754-41.094295-45.626755-10.877902 0-20.244984 3.928131-28.101245 11.784394-8.46059 8.46059-12.993049 19.640656-13.899541 33.842361V755.409836h-24.173115v-156.218754h24.173115v22.964459a54.876328 54.876328 0 0 1 20.849311-19.94282 55.631738 55.631738 0 0 1 28.101246-7.251934z m137.48459-46.231082v50.461377h38.676984V619.436066h-38.676984v99.411934c0 5.741115 0.906492 9.97141 3.323803 12.388721 2.115148 2.417311 6.043279 3.928131 11.48223 3.928131h19.94282V755.409836h-23.568787c-12.690885 0-22.057967-3.323803-27.496918-9.97141-5.136787-6.043279-7.554098-14.806033-7.554099-26.590426V619.436066h-31.425049v-20.244984h31.425049v-40.489967l23.870951-9.97141z m129.930492 46.231082c25.079607 0 44.115934 8.46059 56.80682 25.38177 11.48223 15.108197 17.525508 36.561836 18.129836 63.756591h-123.282886c1.208656 17.525508 5.741115 31.122885 14.201705 40.792131 8.46059 9.669246 20.244984 14.503869 35.051017 14.503869 12.690885 0 23.266623-3.323803 31.122885-9.669246 6.647607-5.438951 11.784393-13.597377 15.712525-24.475279h24.173114c-3.625967 15.108197-10.575738 27.194754-21.151475 36.864-12.993049 11.48223-29.612066 17.525508-49.857049 17.525508-22.360131 0-40.489967-7.554098-53.785181-22.057967-13.899541-15.108197-20.547148-35.051016-20.547147-60.432787 0-22.964459 6.345443-42.302951 19.640656-57.713311 13.295213-16.316852 31.122885-24.475279 53.78518-24.475279z m0.604328 20.244983c-13.899541 0-25.079607 4.532459-33.540197 13.597378s-13.295213 21.151475-14.806033 36.561836h97.598951c-3.021639-33.540197-19.640656-50.159213-49.252721-50.159214z m171.326951-20.244983c8.46059 0 15.712525 1.208656 21.453639 3.625967v24.173115a78.747279 78.747279 0 0 0-23.266623-3.323803c-12.086557 0-22.360131 5.136787-30.518557 16.014688-8.46059 10.273574-12.388721 22.662295-12.388722 37.166164V755.409836h-23.870951v-156.218754h23.870951v27.194754c4.230295-9.064918 9.669246-16.316852 16.316853-21.453639a43.444459 43.444459 0 0 1 28.40341-9.97141z m114.822295 0c38.676984 0 58.317639 21.453639 58.317639 64.360918V755.409836h-24.173115v-94.275147c0-30.518557-13.899541-45.626754-41.094295-45.626755-10.877902 0-20.244984 3.928131-28.101246 11.784394-8.46059 8.46059-12.993049 19.640656-13.899541 33.842361V755.409836h-24.173114v-156.218754h24.173114v22.964459a54.876328 54.876328 0 0 1 20.849312-19.94282 55.631738 55.631738 0 0 1 28.101246-7.251934z m160.146885 0c25.079607 0 44.115934 8.46059 56.80682 25.38177 11.48223 15.108197 17.525508 36.561836 18.129836 63.756591H1066.806557c1.208656 17.525508 5.741115 31.122885 14.201705 40.792131 8.46059 9.669246 20.244984 14.503869 35.051017 14.503869 12.690885 0 23.266623-3.323803 31.122885-9.669246 6.647607-5.438951 11.784393-13.597377 15.712525-24.475279h24.173114c-3.625967 15.108197-10.575738 27.194754-21.151475 36.864-12.993049 11.48223-29.612066 17.525508-49.857049 17.525508-22.360131 0-40.489967-7.554098-53.785181-22.057967-13.899541-15.108197-20.547148-35.051016-20.547147-60.432787 0-22.964459 6.345443-42.302951 19.640656-57.713311 13.295213-16.316852 31.122885-24.475279 53.78518-24.475279z m0.604328 20.244983c-13.899541 0-25.079607 4.532459-33.540197 13.597378s-13.295213 21.151475-14.806033 36.561836H1165.009836c-3.021639-33.540197-19.640656-50.159213-49.252721-50.159214z m144.43436-66.476065v50.461377h38.676984V619.436066H1260.191475v99.411934c0 5.741115 0.906492 9.97141 3.323804 12.388721 2.115148 2.417311 6.043279 3.928131 11.482229 3.928131h19.94282V755.409836h-23.568787c-12.690885 0-22.057967-3.323803-27.496918-9.97141-5.136787-6.043279-7.554098-14.806033-7.554098-26.590426V619.436066h-31.42505v-20.244984h31.42505v-40.489967l23.87095-9.97141z" fill="#1296db" p-id="30571"></path></svg>