<?xml version="1.0" standalone="no"?><!DOCTYPE svg PUBLIC "-//W3C//DTD SVG 1.1//EN" "http://www.w3.org/Graphics/SVG/1.1/DTD/svg11.dtd"><svg t="1752916664082" class="icon" viewBox="0 0 1024 1024" version="1.1" xmlns="http://www.w3.org/2000/svg" p-id="34372" xmlns:xlink="http://www.w3.org/1999/xlink" width="200" height="200"><path d="M1000.192025 123.827178c-4.256136-12.768409-12.768409-25.536818-29.792954-34.049091-127.684088-63.842044-276.648858-93.634998-425.613628-89.378861-144.708633-4.256136-293.673403 25.536818-425.613627 89.378861-12.768409 4.256136-25.536818 17.024545-25.536818 34.049091-38.305226 238.343631-17.024545 429.869764 59.585908 574.578397 85.122726 140.452497 212.806814 251.11204 370.283856 319.210221 12.768409 8.512273 34.04909 8.512273 46.817499 0 157.477042-68.09818 285.161131-178.757724 370.283856-319.210221C1021.472706 553.696941 1042.753388 362.170809 1000.192025 123.827178zM549.04158 953.773751C259.624313 813.321254 93.634998 613.282849 161.733178 128.083314c123.427952-46.817499 255.368177-68.09818 387.308402-63.842044 131.940225-4.256136 263.880449 21.280681 387.308401 68.09818 4.256136 42.561363 12.768409 85.122726 12.768409 123.427952h-59.585908c-17.024545 0-34.04909 4.256136-51.073636 8.512273-12.768409 4.256136-29.792954 12.768409-38.305226 25.536817L655.444987 596.258304l-12.768409-340.490902h-72.354317l-148.96477 302.185676L374.539992 255.767402H285.161131l51.073635 442.638173h72.354317l148.964769-246.855904 34.04909 246.855904h97.891135s170.245451-370.283856 183.01386-378.796129c29.792954-17.024545 85.122726-8.512273 85.122725-8.512272s29.792954 485.199535-408.589082 642.676577z" fill="#448AFF" p-id="34373"></path></svg>